<?xml version="1.0" encoding="UTF-8"?>
<svg id="Layer_1" data-name="Layer 1" xmlns="http://www.w3.org/2000/svg" version="1.1" viewBox="0 0 100 100">
  <defs>
    <style>
      .cls-1, .cls-2 {
        fill: #fc7942;
        stroke-width: 0px;
      }

      .cls-2 {
        display: none;
      }
    </style>
  </defs>
  <path class="cls-2" d="M94.3,4.9c-.9-.8-2.3-1.3-3.4-1.5h-2.8c-.4,0-16.8,0-16.6,0H27.4c-.8,0-17.5,0-16.6,0l-1.3.2c-.6,0-1.1,0-1.9.2-2.5.9-4.2,3.2-4.3,5.7v2.8c0,.4,0,16.8,0,16.6,0,7.4.2,14.7.2,22.1l.2,22.1c0,.8.2,17.5.2,16.6v1.3c0,.6.2,1.1.2,1.7.8,2.1,2.5,3.6,4.7,4,1.1.2,1.9,0,2.8,0l5.5-.2c14-.2,18.1-.4,33-.8-7.4-.2-14.7-.4-22.1-.6-.8,0-17.5-.4-16.6-.4-.9,0-1.9,0-2.6-.2-1.5-.4-2.6-1.3-3.2-3,0-.4-.2-.8-.2-1.1v-1.3c.8-60.6.6-55.3.6-60.6v-7.4c7,.8,14,1.1,20.8,1.3,7.5.4,14.9.4,22.5.4s14.9-.2,22.5-.4c7-.2,14-.6,20.8-1.3v6.2c0,6.8,0,10.9.6,60.6v2.6c0,.8-.4,1.5-.8,2.1-.4.6-1.1,1.1-1.7,1.5-.8.4-1.3.4-2.5.4l-5.5.2c-14,.2-18.5.4-33,.8,7.4.2,14.7.4,22.1.6.4,0,17.5.4,16.6.4.8,0,2.1,0,3-.4,2.1-.8,3.4-2.6,3.8-4.9v-2.8c0-.4.2-16.8.2-16.6l.2-22.1c0-7.4.2-14.7.2-22.1s0-18.1,0-17.9c0-.6,0-1.3-.2-1.9.8-.8,0-1.9-.9-2.8ZM72.5,19.8c-7.5-.4-14.9-.4-22.5-.4s-14.9.2-22.5.4c-7,.2-14,.6-20.8,1.3v-11.5c0-1.1.8-2.3,1.9-2.6.2,0,.6-.2.8-.2,29.2.4-30.2,0,40,.4,3.2,0,40.2-.2,40-.2h1.3c.6,0,1.1.2,1.5.6.4.4.8.9.9,1.5,0,.4.2.6.2.9s0,7.4,0,7v4.3c-7-.8-14-1.1-20.9-1.5Z"/>
  <path class="cls-1" d="M14.3,12.5c-.2.4-.6.8-.9,1.5.4.8.6,1.1.9,1.5.6.6,1.3.6,1.9,0,.4-.2.8-.8,1.1-1.5-.4-.8-.8-1.1-.9-1.5-.8-.4-1.3-.4-2.1,0Z"/>
  <path class="cls-1" d="M25.7,12.5c-.4.4-.8.8-1.1,1.5.4.8.6,1.1.9,1.5.6.6,1.3.6,1.9,0,.4-.4.6-.8.9-1.5-.4-.8-.6-1.1-.9-1.5-.4-.4-1.1-.4-1.7,0Z"/>
  <path class="cls-1" d="M36.8,12.5c-.4.4-.6.8-.9,1.5.4.8.6,1.1.9,1.5.6.6,1.3.6,1.9,0,.4-.4.6-.8.9-1.5-.4-.8-.6-1.1-.9-1.5-.6-.4-1.3-.4-1.9,0Z"/>
  <path class="cls-1" d="M59.6,12.6c-3,.2-6,.6-9.1,1.3,3,.8,6,1.1,9.1,1.5,6.4.6,12.1.6,17.9,0,3-.2,6-.8,9.1-1.5-3-.8-6-1.1-9.1-1.5-5.8-.4-11.7-.6-17.9.2Z"/>
  <path class="cls-1" d="M67.4,80c-5.8-.4-11.7-.4-17.7-.4s-11.7.2-17.7.4c-5.8.2-11.7.8-17.7,1.5,5.8.8,11.7,1.1,17.7,1.5,5.8.4,11.7.4,17.7.4s11.7-.2,17.7-.4c5.8-.2,11.7-.8,17.7-1.5-6-.8-11.9-1.3-17.7-1.5Z"/>
  <path class="cls-1" d="M41.5,66.2c-4.5,0-9.1.2-13.6.4-4.5.2-9.1.8-13.6,1.5,4.5.8,9.1,1.1,13.6,1.5,4.5.4,9.1.4,13.6.4s9.1-.2,13.6-.4c4.5-.2,9.1-.8,13.6-1.5-4.5-.8-9.1-1.1-13.6-1.5-4.5-.4-9.1-.4-13.6-.4Z"/>
  <path class="cls-1" d="M18.7,53.6h7.9c13.2-.4,26.6-.8,39.8-1.1v.2l.8,3.8c.2.4,0,.4.4,1.3.4.8.9,1.3,1.7,1.5.8.2,1.5.2,2.1-.2.8-.6.8-.8.9-.9l.4-.4.2-.2.8.6,2.8,2.5c.2.2,2.5,1.9,2.3,1.9l.4.4c.2.2.4.2.8.4.6,0,.9-.2,1.3-.4l.6-.8,1.1-1.5-1.7.6-.8.6c-.2.2-.6.2-.6-.2l-.2-.4c-.2-.2-1.9-2.5-1.9-2.3l-2.5-2.8-.6-.8-.2-.2c-.4-.4-.8-.6-1.3-.8-.8-.2-1.3,0-2.1.4-.2,0-.4.2-.4.4l-.2.2-.2.2-.6-3.8c-.2-1.3-.4-2.5-.6-3.8l-.2-1.7,1.7.2,3.8.6,3.6.6-.2.2-.2.2s-.2.2-.4.4c-.8.9-.6,2.5.4,3.2l.2.2.8.6,2.8,2.5c.2.2,2.5,1.9,2.3,1.9l.4.2c.2.2.2.4.2.6l-.6,1.1-1.1,1.5,1.5-1.1.8-.6c.4-.4.6-.8.6-1.3s-.2-.6-.4-.8l-.2-.2c-.2-.2-1.9-2.5-1.9-2.3l-1.1-1.3h.9c.9-.2,1.9-.6,2.5-1.3.8-.8.9-1.9.9-2.8l.2-2.6c.4-5.7.6-9.2.6-11.1v-.9c-.2-1.9-1.7-3.6-3.6-4.2-.4-.2-.6-.2-.9-.2h-.6c-.2,0-4.3,0-4.2,0-8.3,0-17-.2-52.1,0h-7.9c-1.1,0-2.6.4-3.6,1.3-.9.9-1.7,2.1-1.7,3.4v14.7c0,.4,0,1.1.2,1.7.4,1.1,1.3,2.3,2.3,2.8,1.7.4,3.2.4,3.8.4ZM16,47.2v-5.3c0-1.3,0-6.8,0-6.4v-1.1c0-.4.4-.9.6-1.1.4-.4.8-.4,1.3-.4h7.9c33,.2,47.7,0,52.1,0s4.2,0,4,0h.9c.4.2.8.4,1.1.8.2.2.2.4.4.6v.4c0,1.9.2,5.3.6,11.1l.2,2.6c.2.8,0,1.5-.4,2.1-.4.6-.9,1.1-1.7,1.3-.4.2-.8.2-1.1.2l-1.3-.9-.6-.8.2-.2.4-.4c.2-.2.4-.2.9-.9.4-.6.4-1.5.2-2.1-.2-.8-.8-1.3-1.5-1.7-.9-.4-.9-.2-1.3-.4l-3.8-.8-3.8-.8c-.2,0-2.5-.4-2.3-.4q-.2,0-.8-.2c-.8,0-1.7.4-2.3.9-.6.6-.9,1.5-.9,2.3s0,.6.2.8c0,.2.4,2.5.4,2.3.2,1.1.4,2.3.6,3.4-25.7-1.1-47.9-1.3-47.5-1.3-.9,0-1.3,0-1.9-.4-.4-.2-.8-.8-.9-1.1v-.8l.2-1.3Z"/>
</svg>